<?xml version="1.0" encoding="utf-8"?>
<!-- Generator: Adobe Illustrator 25.0.0, SVG Export Plug-In . SVG Version: 6.00 Build 0)  -->
<svg version="1.1" id="Calque_1" xmlns="http://www.w3.org/2000/svg" xmlns:xlink="http://www.w3.org/1999/xlink" x="0px" y="0px"
	 viewBox="0 0 212.6 99.2" style="enable-background:new 0 0 212.6 99.2;" xml:space="preserve">
<style type="text/css">
	.st0{fill:#FFFFFF;}
</style>
<g>
	<path class="st0" d="M105.9,41.7V25.2c0-2.8-1.4-4.1-4.1-4.1H81.1c-2.8,0-4.1,1.4-4.1,4.1v16.5c0,2.3-1,4.1-2.9,5.4
		c-1.9,1.3-4.2,1.9-6.8,1.9c-2.6,0-4.8-0.6-6.8-1.9c-1.9-1.3-2.9-3.1-2.9-5.4V25.2c0-9.7,3.9-16.6,11.7-20.5
		c3.2-1.6,7.1-2.5,11.7-2.9h20.7c9.7,0,16.6,3.9,20.5,11.7c1.6,3.2,2.5,7.1,2.9,11.7v16.5c0,2.3-1,4.1-2.9,5.4
		c-1.9,1.3-4.2,1.9-6.8,1.9c-2.6,0-4.8-0.6-6.8-1.9C106.9,45.8,105.9,44,105.9,41.7z"/>
</g>
<g>
	<path class="st0" d="M125.8,74h-20.7c-4.6-0.4-8.5-1.3-11.7-2.9c-7.8-4-11.7-10.8-11.7-20.5V34c0-2.3,1-4.1,2.9-5.4
		c1.9-1.3,4.2-1.9,6.8-1.9c2.6,0,4.8,0.6,6.8,1.9c1.9,1.3,2.9,3.1,2.9,5.4v16.5c0,2.8,1.4,4.1,4.1,4.1h20.7c2.8,0,4.1-1.4,4.1-4.1
		V34c0-2.3,1-4.1,2.9-5.4c1.9-1.3,4.2-1.9,6.8-1.9c2.6,0,4.8,0.6,6.8,1.9c1.9,1.3,2.9,3.1,2.9,5.4v16.5c-0.4,4.6-1.3,8.5-2.9,11.7
		C142.4,70,135.6,74,125.8,74z"/>
</g>
<g>
	<g>
		<path class="st0" d="M22.4,97.6h-2.7l-4.6-7.1v7.1h-3V84.8h2.7l4.6,7.1v-7.1h3V97.6z"/>
	</g>
	<g>
		<path class="st0" d="M29.7,97.8c-1.4,0-2.6-0.5-3.5-1.5c-1-1-1.4-2.2-1.4-3.6c0-1.5,0.5-2.7,1.6-3.7c1-0.9,2.1-1.3,3.3-1.3
			c0.9,0,1.8,0.2,2.5,0.7c0.8,0.5,1.4,1.1,1.8,1.8c0.4,0.8,0.7,1.6,0.7,2.5c0,0.9-0.2,1.7-0.7,2.5c-0.4,0.8-1.1,1.4-1.8,1.9
			C31.5,97.6,30.6,97.8,29.7,97.8z M29.7,90.5c-0.6,0-1.1,0.2-1.5,0.6c-0.4,0.4-0.6,1-0.6,1.7c0,0.7,0.2,1.3,0.6,1.7
			c0.4,0.4,0.9,0.6,1.5,0.6c0.6,0,1.1-0.2,1.5-0.6c0.4-0.4,0.6-1,0.6-1.7c0-0.7-0.2-1.2-0.6-1.7C30.8,90.7,30.3,90.5,29.7,90.5z"/>
	</g>
	<g>
		<path class="st0" d="M39.3,97.6h-2.9v-9.6H39v0.4c0.1-0.1,0.2-0.1,0.3-0.2c0.7-0.5,1.5-0.6,2.4-0.1l0.3,0.1L41,90.7l-0.4-0.2
			c-0.3-0.1-0.4-0.2-0.5-0.2c-0.2,0-0.4,0.2-0.6,0.5c-0.1,0.3-0.3,0.9-0.3,2.4l0,0.4V97.6z"/>
	</g>
	<g>
		<path class="st0" d="M57.5,97.6h-2.9v-4.9c0-1.2-0.2-1.7-0.3-1.9c-0.2-0.3-0.4-0.4-0.8-0.4c-0.3,0-0.6,0.1-0.8,0.3
			c-0.3,0.2-0.4,0.4-0.6,0.8c-0.1,0.4-0.2,0.9-0.2,1.8v4.4h-2.9v-4.7c0-0.8-0.1-1.3-0.2-1.7c-0.1-0.3-0.2-0.5-0.4-0.7
			c-0.4-0.3-1-0.3-1.4,0.1c-0.3,0.2-0.4,0.4-0.6,0.8c-0.1,0.4-0.2,1-0.2,1.8v4.3h-2.9v-9.6h2.9v0.6c0.2-0.2,0.5-0.3,0.8-0.5
			c1-0.5,2.4-0.5,3.4,0.1c0.4,0.2,0.7,0.5,0.9,0.9c0.3-0.4,0.7-0.7,1.1-0.9c1.2-0.6,2.7-0.6,3.7,0c0.5,0.3,0.9,0.8,1.2,1.3
			c0.2,0.5,0.3,1.3,0.3,2.5V97.6z"/>
	</g>
	<g>
		<path class="st0" d="M64.1,97.8c-1.2,0-2.3-0.5-3.2-1.5c-0.9-1-1.3-2.2-1.3-3.6c0-1.5,0.4-2.7,1.3-3.6c0.9-1,2-1.4,3.2-1.4
			c0.6,0,1.1,0.1,1.6,0.3c0.3,0.1,0.5,0.3,0.8,0.5v-0.6h2.9v9.6h-2.9V97c-0.3,0.2-0.5,0.4-0.8,0.5C65.2,97.7,64.6,97.8,64.1,97.8z
			 M64.5,90.4c-0.6,0-1.1,0.2-1.4,0.6c-0.4,0.4-0.6,1-0.6,1.7c0,0.7,0.2,1.3,0.6,1.7c0.4,0.4,0.9,0.6,1.4,0.6c0.6,0,1.1-0.2,1.5-0.6
			c0.4-0.4,0.6-1,0.6-1.7c0-0.7-0.2-1.3-0.6-1.7C65.6,90.6,65.1,90.4,64.5,90.4z"/>
	</g>
	<g>
		<path class="st0" d="M80.5,97.6h-2.9v-4.3c0-1.3-0.1-1.8-0.1-2.1c-0.1-0.3-0.2-0.5-0.4-0.6c-0.2-0.1-0.4-0.2-0.6-0.2
			c-0.4,0-0.7,0.1-0.9,0.4c-0.3,0.3-0.5,0.6-0.6,1.1c0,0.2-0.1,0.6-0.1,1.8v3.9h-2.9v-9.6h2.9v0.5c0.3-0.2,0.6-0.4,0.9-0.5
			c0.5-0.2,0.9-0.3,1.4-0.3c1,0,1.8,0.3,2.5,1c0.6,0.6,0.9,1.5,0.9,2.6V97.6z"/>
	</g>
	<g>
		<path class="st0" d="M87.1,97.8c-1.2,0-2.3-0.5-3.2-1.5c-0.9-1-1.3-2.2-1.3-3.6c0-1.5,0.4-2.7,1.3-3.6c0.9-1,2-1.4,3.2-1.4
			c0.6,0,1.1,0.1,1.6,0.3c0.3,0.1,0.5,0.3,0.8,0.5v-4h2.9v13.1h-2.9V97c-0.3,0.2-0.5,0.4-0.8,0.5C88.2,97.7,87.7,97.8,87.1,97.8z
			 M87.5,90.4c-0.6,0-1.1,0.2-1.4,0.6c-0.4,0.4-0.6,1-0.6,1.7c0,0.7,0.2,1.3,0.6,1.7c0.4,0.4,0.9,0.6,1.4,0.6c0.6,0,1.1-0.2,1.5-0.6
			c0.4-0.4,0.6-1,0.6-1.7c0-0.7-0.2-1.3-0.6-1.7C88.6,90.6,88.1,90.4,87.5,90.4z"/>
	</g>
	<g>
		<path class="st0" d="M97.7,97.6h-2.9v-9.6h2.9V97.6z M96.2,87.5c-0.5,0-0.9-0.2-1.3-0.5c-0.3-0.3-0.5-0.7-0.5-1.2
			c0-0.4,0.2-0.8,0.5-1.1c0.7-0.6,1.8-0.7,2.5,0c0.3,0.3,0.5,0.7,0.5,1.2c0,0.4-0.2,0.8-0.5,1.2C97.1,87.4,96.7,87.5,96.2,87.5z"/>
	</g>
	<g>
		<path class="st0" d="M104.6,97.8c-1.5,0-2.7-0.5-3.7-1.4c-0.9-0.9-1.4-2.1-1.4-3.6c0-1.4,0.5-2.7,1.4-3.6c0.9-1,2.1-1.5,3.5-1.5
			c1.5,0,2.7,0.5,3.7,1.5c0.9,1,1.4,2.2,1.4,3.8l0,0.7h-7.1c0.1,0.4,0.3,0.7,0.6,1c0.4,0.3,0.9,0.5,1.5,0.5c0.7,0,1.4-0.3,1.9-0.8
			l0.2-0.2l2.4,1.2l-0.2,0.3c-0.5,0.7-1.1,1.3-1.8,1.6C106.4,97.6,105.6,97.8,104.6,97.8z M102.7,91.3h3.8c-0.1-0.3-0.3-0.5-0.6-0.7
			c-0.4-0.3-0.8-0.4-1.3-0.4c-0.5,0-1,0.1-1.4,0.5C103,90.8,102.9,91,102.7,91.3z"/>
	</g>
	<g>
		<path class="st0" d="M121.9,97.9c-0.9,0-1.8-0.2-2.5-0.7c-0.7-0.4-1.2-1-1.5-1.7c-0.3-0.7-0.4-1.7-0.4-3.2v-7.6h3v8.2
			c0,0.8,0.1,1.2,0.2,1.3c0.1,0.2,0.2,0.4,0.4,0.5c0.4,0.3,1.2,0.3,1.6,0c0.2-0.1,0.4-0.3,0.5-0.6c0.1-0.2,0.1-0.6,0.1-1.5v-7.9h3
			v7.6c0,1.3-0.1,2.1-0.2,2.6c-0.1,0.5-0.4,1-0.8,1.5c-0.4,0.5-0.9,0.8-1.5,1.1C123.3,97.7,122.6,97.9,121.9,97.9z"/>
	</g>
	<g>
		<path class="st0" d="M137.6,97.6h-2.9v-4.3c0-1.3-0.1-1.8-0.1-2.1c-0.1-0.3-0.2-0.5-0.4-0.6c-0.2-0.1-0.4-0.2-0.6-0.2
			c-0.4,0-0.7,0.1-0.9,0.4c-0.3,0.3-0.5,0.6-0.6,1.1c0,0.2-0.1,0.6-0.1,1.8v3.9h-2.9v-9.6h2.9v0.5c0.3-0.2,0.6-0.4,0.9-0.5
			c0.5-0.2,0.9-0.3,1.4-0.3c1,0,1.8,0.3,2.5,1c0.6,0.6,0.9,1.5,0.9,2.6V97.6z"/>
	</g>
	<g>
		<path class="st0" d="M142.8,97.6h-2.9v-9.6h2.9V97.6z M141.3,87.5c-0.5,0-0.9-0.2-1.3-0.5c-0.3-0.3-0.5-0.7-0.5-1.2
			c0-0.4,0.2-0.8,0.5-1.1c0.7-0.6,1.8-0.6,2.5,0c0.3,0.3,0.5,0.7,0.5,1.1c0,0.4-0.2,0.8-0.5,1.1C142.2,87.3,141.8,87.5,141.3,87.5z"
			/>
	</g>
	<g>
		<path class="st0" d="M149.9,97.6H148l-0.1-0.2l-4-9.4h3l2,4.7l2-4.7h3L149.9,97.6z"/>
	</g>
	<g>
		<path class="st0" d="M160.1,97.8c-1.5,0-2.7-0.5-3.7-1.4c-0.9-0.9-1.4-2.1-1.4-3.6c0-1.4,0.5-2.7,1.4-3.6c0.9-1,2.1-1.5,3.5-1.5
			c1.5,0,2.7,0.5,3.7,1.5c0.9,1,1.4,2.2,1.4,3.8l0,0.7h-7.1c0.1,0.4,0.3,0.7,0.6,1c0.4,0.3,0.9,0.5,1.5,0.5c0.7,0,1.4-0.3,1.9-0.8
			l0.2-0.2l2.4,1.2l-0.2,0.3c-0.5,0.7-1.1,1.3-1.8,1.6C161.9,97.6,161,97.8,160.1,97.8z M158.2,91.3h3.8c-0.1-0.3-0.3-0.5-0.6-0.7
			c-0.4-0.3-0.8-0.4-1.3-0.4c-0.5,0-1,0.1-1.4,0.5C158.5,90.8,158.3,91,158.2,91.3z"/>
	</g>
	<g>
		<path class="st0" d="M169.5,97.6h-2.9v-9.6h2.6v0.4c0.1-0.1,0.2-0.1,0.3-0.2c0.7-0.5,1.5-0.6,2.4-0.1l0.3,0.1l-0.9,2.6l-0.4-0.2
			c-0.3-0.1-0.4-0.2-0.5-0.2c-0.2,0-0.4,0.2-0.6,0.5c-0.1,0.3-0.3,0.9-0.3,2.4l0,0.4V97.6z"/>
	</g>
	<g>
		<path class="st0" d="M176.2,97.8c-1.4,0-2.5-0.6-3.4-1.7l-0.2-0.2l1.8-2l0.3,0.3c0.2,0.3,0.5,0.5,0.8,0.7c0.6,0.3,1,0.3,1.2,0.1
			c0.1-0.1,0.1-0.2,0.1-0.3c0-0.2-0.3-0.5-0.8-0.7l-0.7-0.4c-1.5-0.8-2.3-1.8-2.3-3c0-0.8,0.3-1.5,0.9-2c0.6-0.6,1.4-0.9,2.3-0.9
			c0.6,0,1.2,0.1,1.8,0.4c0.6,0.3,1,0.7,1.4,1.2l0.2,0.2l-1.8,1.8l-0.3-0.3c-0.5-0.5-0.9-0.7-1.3-0.7c-0.2,0-0.3,0-0.4,0.1
			c-0.1,0.1-0.1,0.1-0.1,0.2c0,0,0,0.1,0.1,0.1c0,0,0.1,0.1,0.6,0.3l0.8,0.4c0.9,0.5,1.5,0.9,1.9,1.4c0.4,0.5,0.5,1.1,0.5,1.7
			c0,0.9-0.3,1.6-1,2.2C178.1,97.5,177.3,97.8,176.2,97.8z"/>
	</g>
	<g>
		<path class="st0" d="M184.5,97.6h-2.9v-9.6h2.9V97.6z M183,87.5c-0.5,0-0.9-0.2-1.3-0.5c-0.3-0.3-0.5-0.7-0.5-1.2
			c0-0.4,0.2-0.8,0.5-1.1c0.7-0.6,1.8-0.6,2.5,0c0.3,0.3,0.5,0.7,0.5,1.1c0,0.4-0.2,0.8-0.5,1.1C184,87.3,183.5,87.5,183,87.5z"/>
	</g>
	<g>
		<path class="st0" d="M190,97.6h-2.9v-7h-1.1v-2.6h1.1v-3.3h2.9v3.3h1.3v2.6H190V97.6z"/>
	</g>
	<g>
		<path class="st0" d="M197.5,97.8c-1.5,0-2.7-0.5-3.7-1.4c-0.9-0.9-1.4-2.1-1.4-3.6c0-1.4,0.5-2.7,1.4-3.6c0.9-1,2.1-1.5,3.5-1.5
			c1.5,0,2.7,0.5,3.7,1.5c0.9,1,1.4,2.2,1.4,3.8l0,0.7h-7.1c0.1,0.4,0.3,0.7,0.6,1c0.4,0.3,0.9,0.5,1.5,0.5c0.7,0,1.4-0.3,1.9-0.8
			l0.2-0.2l2.4,1.2l-0.2,0.3c-0.5,0.7-1.1,1.3-1.8,1.6C199.3,97.6,198.4,97.8,197.5,97.8z M195.6,91.3h3.8c-0.1-0.3-0.3-0.5-0.6-0.7
			c-0.4-0.3-0.8-0.4-1.3-0.4c-0.5,0-1,0.1-1.4,0.5C195.9,90.8,195.7,91,195.6,91.3z M197.6,86.9h-2.3l2.3-3.9h3.6L197.6,86.9z"/>
	</g>
</g>
</svg>
